<?xml version="1.0" encoding="UTF-8"?>
<svg id="Layer_1" data-name="Layer 1" xmlns="http://www.w3.org/2000/svg" viewBox="0 0 436.25 443.07">
  <defs>
    <style>
      .cls-1 {
        fill: #fff;
      }

      .cls-1, .cls-2, .cls-3, .cls-4, .cls-5 {
        fill-rule: evenodd;
      }

      .cls-2 {
        fill: #b7bbd9;
      }

      .cls-3 {
        fill: #dfe1ee;
      }

      .cls-4 {
        fill: #252c59;
      }

      .cls-5 {
        fill: #999fc6;
      }
    </style>
  </defs>
  <path class="cls-3" d="M391.9,172.78c10.63,7.02,21.25,16.83,27.76,26.63,7.98,12,11.52,25.94,7.6,40.13-2.17,7.88-7.6,14.55-14.51,18.78v11.94c4.16,9.41,7.36,20.77,9.41,30.41,5.39,25.33,5.39,51.7-1.18,76.82-2.76,10.54-7.93,21.94-14.35,30.69-.1.13-.18.25-.29.38-17.86,22.64-43.35,34.35-72.37,30.25-10.1-1.28-21.89-6.21-30.24-11.76-15.39-10.22-24.62-24.7-28.48-41.5-10.5,1.3-21.33-.89-31.3-4.57-9.08,5.35-20.29,9.5-29.5,11.78-29.22,7.21-58.72,2.68-85.77-9.69-12.54,1.62-27.44.75-38.76-3.16-7.87-2.71-14.99-7.02-20.49-13.34-.27-.31-.49-.58-.73-.92-3.71-5.09-5.38-11.04-4.91-16.76-6.04-4.05-11.87-8.78-16.58-13.15-19.23-17.86-32.31-40.5-38.13-66.12-1.29-5.66-1.89-12.85-1.67-18.59.3-7.79,2.52-15.53,7.22-20.84-2.59-11.26-3.84-23.76-3.56-34.29-.06-5.36,2.23-10.89,5.51-15.02,4.65-5.84,11.24-9.36,18.29-11.42l1.05-7.59c-3.86-7.56-6.96-16.68-8.96-24.28-6.09-23.08-6.23-47.19-.86-70.44,4.24-18.39,16.6-39.99,32.85-49.91,4.32-2.64,9.35-2.73,13.77-.25l58.65,32.92c9.24-4.67,20.2-8.42,29.26-10.77,28.72-7.47,58.64-6.99,87.33.2L345.16,6.83c18.26-7.98,38.72-1.83,44.99,18.74.04.12.07.22.1.34,1.89,6.84,2.68,15.42,3.01,22.45.71,15.26-.72,30.79-3.66,45.86,1.87,1.96,3.41,4.27,4.51,6.83,5.74,13.45-.57,32.47-6.42,46.25,2.31,7.99,3.74,17.09,4.22,25.5h0Z"/>
  <path class="cls-4" d="M50.05,159.24s-22.67-37.01-10.67-89.02c0,0,7-29.34,26.67-41.34l65.35,36.68s47.68-31.01,117.03-12l101.69-34.01s21-9.67,27.01,10c0,0,7.67,27.67-3,71.68,0,0,20-1.33-1,45.34,0,0,5.67,15.34,5.33,34.01,0,0,44.34,24.01,35.67,55.35,0,0-3,11-15,13.34v24.01s22.77,46.68,8.67,100.78c-1.24,4.52-4.92,16.22-12.15,26.07-9.72,12.32-29.17,29.57-59.87,25.18,0,0-48.68-6-49.01-58.68,0,0-12.67,13.34-44.34-1,0,0-45.68,35.67-111.69,3.33,0,0-35.34,6.67-51.01-11.34,0,0-6.33-8.67,1.67-14.34,0,0-46.34-21-59.01-76.68,0,0-6.33-29.67,8.34-29.67,0,0-6.67-19-6-41.01,0,0-.67-12.34,22.34-15l3-21.67h0Z"/>
  <path class="cls-3" d="M64.38,193.58l6-40.01s-28.67-50.01-1.33-99.36l45.34,24.34s-18,15.67-17.67,38.01c0,0,53.68-66.35,151.7-38.34l109.36-38.01s6.67,38.34-11,78.02c0,0,14.34-3.67,16,2.33,0,0,3.33,8.67-10,24.67,0,0,10,20,7.33,48.01,0,0,23.67,6.6,36.01,29.01,0,0,7,15.34-14.34,15l.33,16s-17.34-31.34-50.68-32.67c0,0,16-18,16.67-36.68,0,0,1-7.33-18.34-8,0,0-90.02-4.33-147.37,27.01,0,0-15.67,9-34.34,3.33,0,0-46.34-14.34-83.68-12.67h0ZM49.38,251.92s22.01,35.01,58.68,35.34c0,0,29.01-1,45.34-33.67,0,0,4.34-13,12.67-13,0,0,9.67-1.67,19,12.67,0,0,22.34,34.34,50.01,33.01,0,0,19-2.33,52.01-24.01,0,0-15.67,35.34,13.67,38.01l5.67,7s-8,13.67-10.67,26.67c0,0-7.34-5-17.67-1.67,0,0,8.34,5.67,4,13.67,0,0-10.67,16.34-43.01-3.33,0,0-44.01,40.34-102.69,4.67,0,0-23.67,10-34.01-.67,0,0-3.33-4.67,5.33-11,0,0-58.68-23.67-64.68-75.35,0,0-1.33-11.34,6.33-8.34h0ZM182.41,279.6s-16.34,5.67-14,18.34c0,0-.67,9.67,27.67,12,0,0,14.34,1.67,18.34-3.67,0,0,2.33-6.67,6-2,0,0,3.67,6-3.33,10.67,0,0-10.34,7-33.34-3.33,0,0-17.34-9.34-30.01,6.67,0,0-3.67,2-3-4.33,0,0-.33-6.33,8.34-6,0,0,7.33.33,6.67-4.67,0,0-2.67-4.67-1.67-9.67,0,0-9.34-2.33-13.34-11.67,0,0-1.33-6.67,14-7,0,0,17.67-1,17.67,4.67h0ZM306.44,103.89l38.81-44.57-16.8,31.24s13.67-2.33,12.34,6.67c0,0-.14,9.1-8.07,18.89,0,0,5.74-14.88-2.6-15.22l-23.67,3Z"/>
  <path class="cls-2" d="M80.52,60.37l33.87,18.18s-10.22,8.9-15.12,22.84h0c-22.46-17.16-18.75-41.02-18.75-41.02h0ZM74.58,276.73c9.05,5.83,20.32,10.42,33.49,10.54,0,0,29.01-1,45.34-33.67,0,0,4.34-13,12.67-13,0,0,9.67-1.67,19,12.67,0,0,22.34,34.34,50.01,33.01,0,0,19-2.33,52.01-24.01,0,0-15.67,35.34,13.67,38.01l5.67,7s-8,13.67-10.67,26.67c0,0-7.34-5-17.67-1.67,0,0,8.34,5.67,4,13.67,0,0-10.67,16.34-43.01-3.33,0,0-44.01,40.34-102.69,4.67,0,0-23.67,10-34.01-.67,0,0-3.33-4.67,5.33-11,0,0-6.94-2.8-16.3-8.58-26.97-39.25-16.85-50.3-16.85-50.3h0ZM182.41,279.6s-16.34,5.67-14,18.34c0,0-.67,9.67,27.67,12,0,0,14.34,1.67,18.34-3.67,0,0,2.33-6.67,6-2,0,0,3.67,6-3.33,10.67,0,0-10.34,7-33.34-3.33,0,0-17.34-9.34-30.01,6.67,0,0-3.67,2-3-4.33,0,0-.33-6.33,8.34-6,0,0,7.33.33,6.67-4.67,0,0-2.67-4.67-1.67-9.67,0,0-9.34-2.33-13.34-11.67,0,0-1.33-6.67,14-7,0,0,17.67-1,17.67,4.67h0ZM154.33,79.04c10.24-3.51,21.8-6.14,34.62-7.2-7.46,16.28-6.54,36.72-6.54,36.72l39.01-1.67c15,.33,14.34,12.67,14.34,12.67.33,15-13,15.34-13,15.34l-41.34,1.67.33,11.67,11-.67c14.34-1.33,13.34,12,13.34,12.33,12.34-10.67,13-10.67,13l-12.34,1c.33,16-17,18.34-17,18.34-15.67,1.67-16.67-14.67-16.67-14.67-13,3.67-15-5.67-15-5.67-3.67-12,4-15,4-15l10.34-3.67-.33-11.67-16.67,6c-10.34,3.33-13.67-6-13.67-6-4.33-12.34,7-17,7-17l23.01-9.34c-.67-23.31,6.24-35.82,6.26-35.85h0ZM357.78,40.21s6.67,38.34-11,78.02c0,0,14.34-3.67,16,2.33,0,0,3.33,8.67-10,24.67,0,0,10,20,7.33,48.01,0,0,23.67,6.6,36.01,29.01,0,0,7,15.34-14.34,15l.33,16s-17.34-31.34-50.68-32.67c0,0,16-18,16.67-36.68,0,0,1-7.33-18.34-8,0,0-.22-.01-.63-.03-1.69-23.44-9.04-37.65-9.04-37.65,5.98-8.73,9.96-16.2,12.6-22.13h0c7.93-9.78,8.07-18.88,8.07-18.88,1.33-9-12.34-6.67-12.34-6.67l16.8-31.24h0s12.54-19.11,12.54-19.11h0Z"/>
  <path class="cls-1" d="M64.38,193.58l6-40.01s-28.67-50.01-1.33-99.36l30.67,16.46-19.2-10.31s-2.2,14.2,7.1,28.57h0c-11.11-3.95-14.9-12.39-14.9-12.39-14.67,59.68,24.67,84.02,24.67,84.02-9.34,3.33-16.67,0-16.67,0l-4.83,32.96c-3.89-.13-7.74-.12-11.5.05h0ZM49.38,251.92s3.09,4.91,8.88,11.08c0,0-9.02,8.88-1.62,32.23-6.82-9.78-12.02-21.41-13.6-34.97,0,0-1.33-11.34,6.33-8.34h0ZM102.88,110.09c16.66-15.97,66.78-54.37,145.54-31.87l109.36-38.01-12.54,19.11-27.87,32.01,10.74-27.78-64.01,23.34c5.33,9.34,3.67,17.34,3.67,17.34-91.77-45.22-164.49,5.59-164.88,5.86h0Z"/>
  <path class="cls-1" d="M249.06,171.24c19.71,0,35.69-15.97,35.71-35.67.02,19.71,16,35.67,35.71,35.67-19.71,0-35.69,15.97-35.71,35.67-.02-19.71-16-35.67-35.71-35.67ZM300.44,134.42c9.11,0,16.5-7.38,16.5-16.49,0,9.11,7.39,16.49,16.5,16.49-9.11,0-16.49,7.38-16.5,16.49,0-9.11-7.39-16.49-16.5-16.49Z"/>
  <path class="cls-5" d="M123.8,283.05c9.44-4.22,21.2-12.64,29.6-29.46,0,0,4.34-13,12.67-13,0,0,6.34-1.09,13.7,6.1-10.97-3.57-18.04,12.91-18.04,12.91-15,30.67-37.94,23.46-37.94,23.46h0s0,0,0,0ZM200.08,324.61s-23.01-10.34-33.67-7c0,0-11,5.33-7.33,13,0,0,7,16,20.67,16.34,0,0,13-.67,22-18.34,0,0,1-3.33-1.67-4h0ZM228.5,285.93c2.15.32,4.35.45,6.58.34,0,0,19-2.33,52.01-24.01,0,0-3.92,8.84-4.17,18-37.17,26.01-54.43,5.66-54.43,5.66h0Z"/>
  <path class="cls-3" d="M316.44,316.61s-28.4,63.13,7.67,85.35c0,0,34.34,20.67,60.01-18,0,0,22.67-34.67-1-102.69,0,0-17.34-53.01-62.68-49.68,0,0-29.01,3.67-25.01,24.67,0,0,1.67,7.67,9,9,0,0,2.85-7.07,9-11.34,5.58-3.87,14.07-5.35,22,1,0,0-20-3-21.34,15.67,0,0-1,20.34,24.01,16.34,0,0-7.33,10.67-21.34,4.33l-5,4.67s13.34,24.01,46.34,8.34c0,0-3,10.34-19,14.34,0,0,.67,6.67,7.33,10.67,0,0-13.34,3-19.67-10,0,0-4.33.33-10.34-2.67Z"/>
  <path class="cls-1" d="M331.01,404.98c.46.16.95.31,1.45.47-.5-.15-.99-.31-1.45-.47ZM332.53,405.47c.52.16,1.07.31,1.63.46-.56-.15-1.11-.3-1.63-.46ZM334.18,405.94c.54.14,1.1.28,1.68.41-.58-.13-1.13-.27-1.68-.41ZM336.02,406.39c.58.13,1.17.25,1.78.36-.61-.11-1.2-.23-1.78-.36ZM337.9,406.77c.2.04.41.07.62.11-.21-.03-.41-.07-.62-.11ZM338.54,406.88c.41.07.83.13,1.26.19-.42-.06-.84-.12-1.26-.19ZM339.89,407.08c.63.09,1.28.16,1.94.22-.66-.06-1.31-.13-1.94-.22ZM342.01,407.31c.21.02.42.03.63.05-.21-.02-.42-.03-.63-.05ZM342.8,407.37c.4.03.81.05,1.22.07-.41-.02-.82-.04-1.22-.07ZM344.18,407.45c.22,0,.45.01.67.02-.23,0-.45-.01-.67-.02ZM344.99,407.47c.46,0,.91,0,1.38,0-.46,0-.92,0-1.38,0ZM346.42,407.47c.23,0,.46-.01.69-.02-.23,0-.46.01-.69.02ZM347.33,407.44c.43-.02.86-.04,1.29-.07-.43.03-.86.06-1.29.07ZM348.77,407.36c.22-.02.44-.04.66-.06-.22.02-.44.04-.66.06ZM349.72,407.27c.43-.04.87-.09,1.31-.15-.44.06-.88.11-1.31.15ZM351.16,407.1c.22-.03.44-.06.66-.1-.22.03-.44.07-.66.10ZM352.16,406.95c.45-.07.9-.15,1.36-.24-.46.09-.91.17-1.36.24ZM353.59,406.69c.22-.04.45-.09.67-.14-.22.05-.45.1-.67.14ZM354.61,406.48c.42-.1.85-.2,1.27-.31-.43.11-.85.22-1.27.31ZM356.1,406.11c.21-.06.42-.12.63-.18-.21.06-.42.12-.63.18ZM357.14,405.81c.21-.06.42-.12.63-.19-.21.07-.42.13-.63.19ZM357.77,405.62c8.71-2.77,17.99-9.07,26.35-21.66,0,0,22.67-34.67-1-102.69,0,0-17.34-53.01-62.68-49.68,0,0-27.6,3.49-25.24,23.16.14-.15,7.53-7.95,17.47-8.8h0s26.77-16.37,44.77,10.97c0,0-10.67-2-22-2,0,0-20-3-21.34,15.67,0,0-.3,6.23,3.66,11.12,0-.17-.19-23.42,38.01-15.45,0,0,25.67,8.34,27.34,55.35,0,0,2.67,48.01-21,62.01,0,0-14.51,7.01-22.59-.99,1.62,11.48,6.68,20.84,18.24,22.98h0ZM295.24,255.01c.02.14.04.29.06.43-.02-.14-.04-.29-.06-.43Z"/>
  <path class="cls-2" d="M316.44,316.61s-28.4,63.13,7.67,85.35c0,0,15.62,9.4,33.66,3.66-34.34-6.35-11.32-76.34-11.32-76.34,0,0-13.34,3-19.67-10,0,0-4.33.33-10.34-2.67h0ZM295.77,271.93s3.33,3.67,9.34,3c0,0-.67,5,4,9.67,0,0-6,7.67-13.34,2,0,0-5.33-4.67,0-14.67h0ZM295.21,254.75c.06.49.13.99.23,1.51,0,0,1.67,7.67,9,9,0,0,2.85-7.07,9-11.34,3.91-2.71,9.25-4.25,14.82-2.74h0c-16.75-13.66-32.85,3.35-33.05,3.57ZM338.11,286.93s-7.33,10.67-21.34,4.33l-5,4.67s13.34,24.01,46.34,8.34c2-8-2.33-13-2.33-13-7.33-9.67-17.67-4.33-17.67-4.33h0Z"/>
  <path class="cls-1" d="M80.39,202.25s-35.67,19.34-7,62.01c0,0-25.67-17-29.01-56.35,0,0-1-5,8-5.67,0,0,15.67-2,28.01,0ZM276.76,188.91s-22.34,14.67-17.34,56.68c0,0,2.23,12.73,23.01,8,0,0-12.34,10.34-26.01,16,0,0-7.34,4.33-7-7l1.33-42.01s.67-25.67-12.34-21.67c0,0-22,7.34-23.34,40.34,0,0-1.33,27.01,18.67,37.34,0,0-18,5-44.01-33.34,0,0-16-22.67,3.67-34.34,0,0,42.34-22,83.35-20h0ZM131.4,226.25s-31.34,12.67-43.34,36.67c0,0-4.33,7.67,9,13,0,0,17.67,6.67,36.34-10.67,0,0,17.34-14.67,13.34-34.67,0,0-1.33-10.34-15.34-4.33h0Z"/>
</svg>
